<?xml version="1.0" encoding="UTF-8" standalone="no"?><!DOCTYPE svg PUBLIC "-//W3C//DTD SVG 1.1//EN" "http://www.w3.org/Graphics/SVG/1.1/DTD/svg11.dtd"><!-- Generated by graphviz version 2.40.1 (20161225.0304)
 --><!-- Title: g Pages: 1 --><svg xmlns="http://www.w3.org/2000/svg" xmlns:xlink="http://www.w3.org/1999/xlink" width="628pt" height="145pt" viewBox="0.00 0.00 628.19 145.00">
<g id="graph0" class="graph" transform="scale(1 1) rotate(0) translate(4 141)">
<title>g</title>
<polygon fill="#ffffff" stroke="transparent" points="-4,4 -4,-141 624.1872,-141 624.1872,4 -4,4"/>
<!-- node0 -->
<g id="node1" class="node">
<title>node0</title>
<polygon fill="none" stroke="#000000" points="0,-54.7 0,-136.3 113.192,-136.3 113.192,-54.7 0,-54.7"/>
<text text-anchor="middle" x="56.596" y="-117.9" font-family="Helvetica,Arial,sans-serif" font-size="16.00" fill="#000000">物流运费</text>
<polyline fill="none" stroke="#000000" points="0,-109.1 113.192,-109.1 "/>
<text text-anchor="middle" x="56.596" y="-90.7" font-family="Helvetica,Arial,sans-serif" font-size="16.00" fill="#000000">- 买家付卖家</text>
<polyline fill="none" stroke="#000000" points="0,-81.9 113.192,-81.9 "/>
<text text-anchor="middle" x="56.596" y="-63.5" font-family="Helvetica,Arial,sans-serif" font-size="16.00" fill="#000000">- 卖家付平台</text>
</g>
<!-- node1 -->
<g id="node2" class="node">
<title>node1</title>
<polygon fill="none" stroke="#000000" points="149.192,-54.7 149.192,-136.3 278.1104,-136.3 278.1104,-54.7 149.192,-54.7"/>
<text text-anchor="middle" x="213.6512" y="-117.9" font-family="Helvetica,Arial,sans-serif" font-size="16.00" fill="#000000">物流渠道</text>
<polyline fill="none" stroke="#000000" points="149.192,-109.1 278.1104,-109.1 "/>
<text text-anchor="middle" x="213.6512" y="-90.7" font-family="Helvetica,Arial,sans-serif" font-size="16.00" fill="#000000">- 标快 standard</text>
<polyline fill="none" stroke="#000000" points="149.192,-81.9 278.1104,-81.9 "/>
<text text-anchor="middle" x="213.6512" y="-63.5" font-family="Helvetica,Arial,sans-serif" font-size="16.00" fill="#000000">- 经济 economy</text>
</g>
<!-- node0&#45;&gt;node1 -->
<g id="0" class="edge">
<title>node0:f0-&gt;node1:f0</title>
<path fill="none" stroke="#000000" d="M113.192,-122.5C125.3451,-122.5 130.662,-122.5 139.3971,-122.5"/>
<polygon fill="#000000" stroke="#000000" points="139.6512,-126.0001 149.6512,-122.5 139.6512,-119.0001 139.6512,-126.0001"/>
</g>
<!-- node2 -->
<g id="node3" class="node">
<title>node2</title>
<polygon fill="none" stroke="#000000" points="314.1104,-.5 314.1104,-136.5 399.8672,-136.5 399.8672,-.5 314.1104,-.5"/>
<text text-anchor="middle" x="356.9888" y="-118.1" font-family="Helvetica,Arial,sans-serif" font-size="16.00" fill="#000000">货物类型</text>
<polyline fill="none" stroke="#000000" points="314.1104,-109.3 399.8672,-109.3 "/>
<text text-anchor="middle" x="356.9888" y="-90.9" font-family="Helvetica,Arial,sans-serif" font-size="16.00" fill="#000000">- 普货</text>
<polyline fill="none" stroke="#000000" points="314.1104,-82.1 399.8672,-82.1 "/>
<text text-anchor="middle" x="356.9888" y="-63.7" font-family="Helvetica,Arial,sans-serif" font-size="16.00" fill="#000000">- 特货</text>
<polyline fill="none" stroke="#000000" points="314.1104,-54.9 399.8672,-54.9 "/>
<text text-anchor="middle" x="356.9888" y="-36.5" font-family="Helvetica,Arial,sans-serif" font-size="16.00" fill="#000000">- 敏感货</text>
<polyline fill="none" stroke="#000000" points="314.1104,-27.7 399.8672,-27.7 "/>
<text text-anchor="middle" x="356.9888" y="-9.3" font-family="Helvetica,Arial,sans-serif" font-size="16.00" fill="#000000">- 禁运品</text>
</g>
<!-- node1&#45;&gt;node2 -->
<g id="0" class="edge">
<title>node1:f0-&gt;node2:f0</title>
<path fill="none" stroke="#000000" d="M277.6512,-122.5C289.8043,-122.5 295.1212,-122.5 303.8563,-122.5"/>
<polygon fill="#000000" stroke="#000000" points="304.1104,-126.0001 314.1104,-122.5 304.1104,-119.0001 304.1104,-126.0001"/>
</g>
<!-- node3 -->
<g id="node4" class="node">
<title>node3</title>
<polygon fill="none" stroke="#000000" points="435.8672,-54.7 435.8672,-136.3 620.1872,-136.3 620.1872,-54.7 435.8672,-54.7"/>
<text text-anchor="middle" x="528.0272" y="-117.9" font-family="Helvetica,Arial,sans-serif" font-size="16.00" fill="#000000">订单价格（申报）</text>
<polyline fill="none" stroke="#000000" points="435.8672,-109.1 620.1872,-109.1 "/>
<text text-anchor="middle" x="528.0272" y="-90.7" font-family="Helvetica,Arial,sans-serif" font-size="16.00" fill="#000000">- 低价值</text>
<polyline fill="none" stroke="#000000" points="435.8672,-81.9 620.1872,-81.9 "/>
<text text-anchor="middle" x="528.0272" y="-63.5" font-family="Helvetica,Arial,sans-serif" font-size="16.00" fill="#000000">- 高价值</text>
</g>
<!-- node2&#45;&gt;node3 -->
<g id="0" class="edge">
<title>node2:f0-&gt;node3:f0</title>
<path fill="none" stroke="#000000" d="M399.8672,-122.5C411.9205,-122.5 417.1939,-122.5 425.8572,-122.5"/>
<polygon fill="#000000" stroke="#000000" points="426.0272,-126.0001 436.0272,-122.5 426.0272,-119.0001 426.0272,-126.0001"/>
</g>
</g>
</svg>