<?xml version="1.0" encoding="UTF-8" standalone="no"?><!DOCTYPE svg PUBLIC "-//W3C//DTD SVG 1.1//EN" "http://www.w3.org/Graphics/SVG/1.1/DTD/svg11.dtd"><!-- Generated by graphviz version 2.40.1 (20161225.0304)
 --><!-- Title: finite_state_machine Pages: 1 --><svg xmlns="http://www.w3.org/2000/svg" xmlns:xlink="http://www.w3.org/1999/xlink" width="846pt" height="240pt" viewBox="0.00 0.00 846.18 240.28">
<g id="graph0" class="graph" transform="scale(1 1) rotate(0) translate(4 236.282)">
<title>finite_state_machine</title>
<polygon fill="#ffffff" stroke="transparent" points="-4,4 -4,-236.282 842.1777,-236.282 842.1777,4 -4,4"/>
<!-- 0 -->
<g id="node1" class="node">
<title>0</title>
<ellipse fill="none" stroke="#000000" cx="37.0389" cy="-149.4975" rx="33.0736" ry="33.0736"/>
<ellipse fill="none" stroke="#000000" cx="37.0389" cy="-149.4975" rx="37.0778" ry="37.0778"/>
<text text-anchor="middle" x="37.0389" y="-145.2975" font-family="Helvetica,Arial,sans-serif" font-size="14.00" fill="#000000">货源</text>
</g>
<!-- 1 -->
<g id="node4" class="node">
<title>1</title>
<ellipse fill="none" stroke="#000000" cx="201.852" cy="-200.4975" rx="31.5704" ry="31.5704"/>
<text text-anchor="middle" x="201.852" y="-196.2975" font-family="Helvetica,Arial,sans-serif" font-size="14.00" fill="#000000">卖家</text>
</g>
<!-- 0&#45;&gt;1 -->
<g id="edge1" class="edge">
<title>0-&gt;1</title>
<path fill="none" stroke="#000000" d="M72.8009,-160.5637C99.024,-168.6783 134.6432,-179.7003 161.8176,-188.1092"/>
<polygon fill="#000000" stroke="#000000" points="160.8264,-191.4662 171.4141,-191.0788 162.8957,-184.779 160.8264,-191.4662"/>
<text text-anchor="middle" x="110.0916" y="-180.6975" font-family="Helvetica,Arial,sans-serif" font-size="14.00" fill="#000000">跨境</text>
</g>
<!-- 2 -->
<g id="node5" class="node">
<title>2</title>
<ellipse fill="none" stroke="#000000" cx="353.944" cy="-145.4975" rx="59.1911" ry="59.1911"/>
<text text-anchor="middle" x="353.944" y="-141.2975" font-family="Helvetica,Arial,sans-serif" font-size="14.00" fill="#000000">境内分拨仓</text>
</g>
<!-- 0&#45;&gt;2 -->
<g id="edge5" class="edge">
<title>0-&gt;2</title>
<path fill="none" stroke="#000000" d="M74.1157,-146.6112C95.2051,-145.1137 122.1175,-143.4446 146.1054,-142.6975 195.6339,-141.155 208.0513,-141.9777 257.5986,-142.6975 266.2907,-142.8238 275.4225,-143.0141 284.4576,-143.2373"/>
<polygon fill="#000000" stroke="#000000" points="284.501,-146.7395 294.5889,-143.5016 284.6836,-139.7419 284.501,-146.7395"/>
<text text-anchor="middle" x="201.852" y="-146.6975" font-family="Helvetica,Arial,sans-serif" font-size="14.00" fill="#000000">跨境-货源直接发</text>
</g>
<!-- 4 -->
<g id="node2" class="node">
<title>4</title>
<ellipse fill="none" stroke="#000000" cx="801.8621" cy="-61.4975" rx="32.1523" ry="32.1523"/>
<ellipse fill="none" stroke="#000000" cx="801.8621" cy="-61.4975" rx="36.1321" ry="36.1321"/>
<text text-anchor="middle" x="801.8621" y="-57.2975" font-family="Helvetica,Arial,sans-serif" font-size="14.00" fill="#000000">买家</text>
</g>
<!-- 5 -->
<g id="node3" class="node">
<title>5</title>
<ellipse fill="none" stroke="#000000" cx="586.9455" cy="-41.4975" rx="37.4952" ry="37.4952"/>
<ellipse fill="none" stroke="#000000" cx="586.9455" cy="-41.4975" rx="41.495" ry="41.495"/>
<text text-anchor="middle" x="586.9455" y="-37.2975" font-family="Helvetica,Arial,sans-serif" font-size="14.00" fill="#000000">海外仓</text>
</g>
<!-- 5&#45;&gt;4 -->
<g id="edge6" class="edge">
<title>5-&gt;4</title>
<path fill="none" stroke="#000000" d="M628.3836,-45.3537C664.7309,-48.7362 717.5314,-53.6497 755.3218,-57.1665"/>
<polygon fill="#000000" stroke="#000000" points="755.2751,-60.6772 765.5564,-58.1189 755.9238,-53.7073 755.2751,-60.6772"/>
<text text-anchor="middle" x="698.6697" y="-59.6975" font-family="Helvetica,Arial,sans-serif" font-size="14.00" fill="#000000">本土发货</text>
</g>
<!-- 1&#45;&gt;2 -->
<g id="edge2" class="edge">
<title>1-&gt;2</title>
<path fill="none" stroke="#000000" d="M231.9005,-189.6313C248.119,-183.7663 268.8086,-176.2844 288.5259,-169.1542"/>
<polygon fill="#000000" stroke="#000000" points="289.8897,-172.3829 298.1034,-165.6908 287.5091,-165.8001 289.8897,-172.3829"/>
</g>
<!-- 3 -->
<g id="node6" class="node">
<title>3</title>
<ellipse fill="none" stroke="#000000" cx="586.9455" cy="-145.4975" rx="44.6953" ry="44.6953"/>
<text text-anchor="middle" x="586.9455" y="-141.2975" font-family="Helvetica,Arial,sans-serif" font-size="14.00" fill="#000000">当地仓</text>
</g>
<!-- 2&#45;&gt;3 -->
<g id="edge3" class="edge">
<title>2-&gt;3</title>
<path fill="none" stroke="#000000" d="M413.343,-145.4975C449.7895,-145.4975 496.1419,-145.4975 531.7811,-145.4975"/>
<polygon fill="#000000" stroke="#000000" points="532.0022,-148.9976 542.0022,-145.4975 532.0021,-141.9976 532.0022,-148.9976"/>
<text text-anchor="middle" x="477.6937" y="-149.6975" font-family="Helvetica,Arial,sans-serif" font-size="14.00" fill="#000000">跨境基础费用</text>
</g>
<!-- 3&#45;&gt;4 -->
<g id="edge4" class="edge">
<title>3-&gt;4</title>
<path fill="none" stroke="#000000" d="M628.8938,-129.102C666.1232,-114.551 720.317,-93.3694 758.0882,-78.6065"/>
<polygon fill="#000000" stroke="#000000" points="759.7571,-81.7121 767.7968,-74.8119 757.2088,-75.1924 759.7571,-81.7121"/>
<text text-anchor="middle" x="698.6697" y="-124.6975" font-family="Helvetica,Arial,sans-serif" font-size="14.00" fill="#000000">买家支付运费</text>
</g>
</g>
</svg>